<svg width="16" height="16" viewBox="0 0 16 16" fill="none" xmlns="http://www.w3.org/2000/svg">
<g clip-path="url(#clip0_121_136)">
<path d="M7.1899 1.00003C7.18955 0.851574 7.23332 0.706364 7.31566 0.582837C7.398 0.459311 7.51519 0.363039 7.65236 0.306245C7.78952 0.249452 7.94046 0.234699 8.08602 0.26386C8.23159 0.293022 8.3652 0.364781 8.4699 0.470028L15.9999 7.99003L8.4699 15.511C8.34891 15.6404 8.18602 15.7228 8.0101 15.7436C7.83417 15.7644 7.65656 15.7222 7.50874 15.6246C7.36092 15.527 7.25243 15.3802 7.20249 15.2102C7.15255 15.0403 7.16439 14.8581 7.2359 14.696C7.27701 14.6042 7.33618 14.5215 7.4099 14.453L13.1299 8.73903H0.749899C0.648283 8.74428 0.54666 8.7288 0.451217 8.69353C0.355773 8.65826 0.268504 8.60394 0.194721 8.53387C0.120938 8.46381 0.0621845 8.37946 0.0220354 8.28596C-0.0181138 8.19247 -0.0388184 8.09178 -0.0388184 7.99003C-0.0388184 7.88828 -0.0181138 7.78759 0.0220354 7.69409C0.0621845 7.6006 0.120938 7.51625 0.194721 7.44618C0.268504 7.37611 0.355773 7.32179 0.451217 7.28652C0.54666 7.25125 0.648283 7.23577 0.749899 7.24103H13.1299L7.4099 1.52903C7.34019 1.45948 7.28488 1.37688 7.24713 1.28593C7.20938 1.19499 7.18993 1.09849 7.1899 1.00003Z" fill="#292929"/>
</g>
<defs>
<clipPath id="clip0_121_136">
<rect width="16" height="16" fill="white"/>
</clipPath>
</defs>
</svg>
