<svg width="25" height="22" viewBox="0 0 25 22" fill="none" xmlns="http://www.w3.org/2000/svg">
<path d="M22.9202 2.02174C20.3056 -0.501837 16.1916 -0.684669 13.3475 1.59841C13.3441 1.60119 12.9772 1.89185 12.5017 1.89185C12.014 1.89185 11.6661 1.60693 11.6526 1.59564C8.81179 -0.684669 4.69783 -0.501837 2.08314 2.02174C0.740198 3.31783 0 5.04141 0 6.87488C0 8.70835 0.740198 10.4319 2.05749 11.7011L10.3082 21.0235C10.8572 21.644 11.6569 22 12.5017 22C13.3469 22 14.1462 21.644 14.6952 21.0241L22.9198 11.7284C25.6933 9.05227 25.6933 4.69789 22.9202 2.02174ZM22.2149 11.0988L13.9644 20.4212C13.5984 20.8342 13.0653 21.0718 12.5017 21.0718C11.9381 21.0718 11.4053 20.8348 11.0389 20.4212L2.76343 11.0719C1.60184 9.95059 0.961764 8.46006 0.961764 6.87488C0.961764 5.28911 1.60185 3.79897 2.76302 2.6779C3.96645 1.51585 5.53773 0.927931 7.11311 0.927931C8.49585 0.927931 9.88167 1.38141 11.0242 2.29834C11.0857 2.3516 11.6521 2.81987 12.5017 2.81987C13.3278 2.81987 13.9086 2.35714 13.9659 2.30943C16.4224 0.337181 19.9796 0.495897 22.2404 2.6779C24.6384 4.99211 24.6384 8.75745 22.2149 11.0988Z" fill="black"/>
</svg>
