<svg width="25" height="25" viewBox="0 0 25 25" fill="none" xmlns="http://www.w3.org/2000/svg">
<path d="M3.85932 3.85931C4.07905 3.63986 4.3769 3.51659 4.68745 3.51659C4.99799 3.51659 5.29584 3.63986 5.51557 3.85931L12.4999 10.8437L19.4843 3.85931C19.5916 3.74417 19.721 3.65183 19.8647 3.58778C20.0085 3.52373 20.1637 3.48929 20.321 3.48651C20.4784 3.48373 20.6346 3.51268 20.7806 3.57162C20.9265 3.63056 21.059 3.71828 21.1703 3.82956C21.2816 3.94084 21.3693 4.07339 21.4283 4.21931C21.4872 4.36523 21.5161 4.52153 21.5134 4.67888C21.5106 4.83622 21.4762 4.9914 21.4121 5.13515C21.3481 5.2789 21.2557 5.40828 21.1406 5.51556L14.1562 12.4999L21.1406 19.4843C21.2557 19.5916 21.3481 19.721 21.4121 19.8647C21.4762 20.0085 21.5106 20.1636 21.5134 20.321C21.5161 20.4783 21.4872 20.6346 21.4283 20.7806C21.3693 20.9265 21.2816 21.059 21.1703 21.1703C21.059 21.2816 20.9265 21.3693 20.7806 21.4283C20.6346 21.4872 20.4784 21.5161 20.321 21.5134C20.1637 21.5106 20.0085 21.4761 19.8647 21.4121C19.721 21.348 19.5916 21.2557 19.4843 21.1406L12.4999 14.1562L5.51557 21.1406C5.29342 21.3476 4.9996 21.4603 4.696 21.4549C4.39241 21.4495 4.10274 21.3266 3.88804 21.1118C3.67333 20.8971 3.55034 20.6075 3.54498 20.3039C3.53963 20.0003 3.65232 19.7065 3.85932 19.4843L10.8437 12.4999L3.85932 5.51556C3.63987 5.29583 3.5166 4.99798 3.5166 4.68743C3.5166 4.37689 3.63987 4.07904 3.85932 3.85931Z" fill="#292929"/>
</svg>
