<?xml version="1.0" encoding="UTF-8"?>
<svg id="Layer_1" data-name="Layer 1" xmlns="http://www.w3.org/2000/svg" viewBox="0 0 105.72 106.64">
  <defs>
    <style>
      .cls-1 {
        isolation: isolate;
      }

      .cls-2 {
        fill: #f1f2f2;
      }

      .cls-2, .cls-3 {
        stroke-width: 0px;
      }

      .cls-3 {
        fill: #e68824;
      }
    </style>
  </defs>
  <g>
    <circle class="cls-3" cx="52.86" cy="53.32" r="34.02"/>
    <g>
      <path class="cls-2" d="m52.86,80.29c-15.06,0-27.31-12.25-27.31-27.31,0-7.3,2.84-14.16,8-19.31l2.83,2.83c-4.4,4.4-6.83,10.25-6.83,16.48,0,12.85,10.46,23.31,23.31,23.31v4Z"/>
      <path class="cls-2" d="m71.46,72.98l-2.73-2.93c4.79-4.46,7.43-10.52,7.43-17.06,0-12.85-10.46-23.31-23.31-23.31v-4c15.06,0,27.31,12.25,27.31,27.31,0,7.55-3.17,14.84-8.71,19.99Z"/>
      <path class="cls-2" d="m52.86,71.63c-10.09,0-18.3-8.21-18.3-18.3h4c0,7.88,6.41,14.3,14.3,14.3v4Z"/>
      <path class="cls-2" d="m71.16,53.32h-4c0-7.88-6.42-14.3-14.3-14.3v-4c10.09,0,18.3,8.21,18.3,18.3Z"/>
      <path class="cls-2" d="m52.86,62.1c-2.71,0-5.27-1.19-7.02-3.28l3.07-2.57c.98,1.17,2.42,1.84,3.95,1.84v4Z"/>
      <path class="cls-2" d="m56.9,49.74c-1-1.24-2.47-1.95-4.04-1.95v-4c2.79,0,5.4,1.26,7.16,3.44l-3.12,2.51Z"/>
    </g>
  </g>
  <g>
    <g class="cls-1">
      <g class="cls-1">
        <path class="cls-3" d="m46.62,5.56l1.78-.04v.45c.03.96.27,1.7.73,2.23.46.53,1.19.78,2.2.76,1.01-.02,1.73-.3,2.17-.83.44-.53.65-1.25.63-2.17l-.12-5.93,1.81-.04.12,6c.02.99-.16,1.82-.54,2.49-.38.68-.92,1.19-1.61,1.54-.7.35-1.51.53-2.43.55-.92.02-1.73-.13-2.43-.46-.71-.32-1.26-.82-1.66-1.49s-.61-1.5-.63-2.51v-.56Z"/>
      </g>
    </g>
    <g class="cls-1">
      <g class="cls-1">
        <path class="cls-3" d="m60.74,11.3c-.7-.15-1.26-.42-1.69-.81-.43-.39-.71-.88-.86-1.47-.14-.59-.14-1.26.02-2l.9-4.2,1.74.37-.84,3.93c-.17.79-.11,1.42.16,1.91.28.48.75.8,1.43.94.49.11.94.09,1.34-.05.4-.14.74-.39,1.02-.74.28-.36.48-.8.59-1.33l.53.46c-.24.76-.58,1.39-1.02,1.88-.44.49-.95.83-1.52,1.02-.57.19-1.18.22-1.81.08Zm3.43.54l.14-2.83,1.04-4.86,1.74.37-1.09,5.12-.08,2.56-1.74-.37Z"/>
      </g>
    </g>
    <g class="cls-1">
      <g class="cls-1">
        <path class="cls-3" d="m69.45,12.01l-.39-.39,7.02-3.38,1.87.87-9.26,4.27-1.51-.7,4.45-9.58,1.62.75-3.79,8.18Zm2.97-1.15l1.61-.49.86,5.87-1.9-.88-.56-4.5Z"/>
      </g>
    </g>
    <g class="cls-1">
      <g class="cls-1">
        <path class="cls-3" d="m78.47,19.19c-.72-.54-1.27-1.16-1.62-1.86-.36-.7-.52-1.41-.47-2.14.04-.73.31-1.42.8-2.08.48-.64,1.06-1.1,1.73-1.36.67-.26,1.38-.33,2.12-.2.74.13,1.46.45,2.16.97.7.52,1.18,1.13,1.46,1.82.28.69.34,1.42.2,2.2-.14.77-.5,1.54-1.07,2.3l-5.86-4.38.81-1.09,5.14,3.85-1.02-.13c.28-.43.45-.85.5-1.27.05-.42-.01-.82-.19-1.19-.17-.37-.46-.71-.85-1-.42-.31-.84-.5-1.28-.56-.44-.06-.86-.01-1.26.16-.4.17-.76.47-1.07.88-.35.46-.54.94-.58,1.43-.04.49.06.97.31,1.44.25.47.64.9,1.17,1.29.48.36,1.02.65,1.63.87.61.22,1.21.34,1.79.35l-.77,1.03c-.6,0-1.24-.11-1.91-.35-.67-.24-1.29-.57-1.85-.99Z"/>
      </g>
    </g>
    <g class="cls-1">
      <g class="cls-1">
        <path class="cls-3" d="m83.12,23.14c-.15-.15-.25-.32-.29-.51s-.05-.38,0-.57c.05-.19.15-.36.3-.51.15-.15.32-.25.51-.29s.38-.05.57,0c.19.05.36.15.51.3s.24.32.29.51c.05.19.05.38,0,.57s-.15.36-.3.51c-.15.15-.32.25-.51.29-.19.05-.38.05-.57,0-.19-.05-.36-.15-.51-.3Z"/>
      </g>
    </g>
    <g class="cls-1">
      <g class="cls-1">
        <path class="cls-3" d="m90.7,23.75l.94,1.52-.38.24c-.82.51-1.33,1.09-1.55,1.75-.22.66-.06,1.42.47,2.28.53.85,1.14,1.34,1.82,1.45.68.11,1.41-.08,2.19-.56l5.03-3.13.96,1.54-5.09,3.16c-.84.52-1.65.79-2.42.81-.78.02-1.49-.18-2.15-.61s-1.23-1.03-1.71-1.81c-.48-.78-.76-1.55-.85-2.32-.08-.77.06-1.5.43-2.19.37-.69.98-1.3,1.84-1.83l.48-.3Z"/>
      </g>
    </g>
    <g class="cls-1">
      <g class="cls-1">
        <path class="cls-3" d="m92.92,38.78c-.23-.68-.28-1.3-.16-1.86s.4-1.06.83-1.49,1.01-.76,1.73-1l4.07-1.37.57,1.69-3.81,1.28c-.76.26-1.28.62-1.56,1.11-.28.48-.31,1.05-.08,1.71.16.48.4.85.72,1.12.32.27.71.44,1.16.5.45.06.93,0,1.44-.17l-.13.69c-.78.18-1.49.21-2.14.08s-1.2-.39-1.65-.79c-.46-.4-.79-.9-.99-1.52Zm1.29,3.23l2.51-1.32,4.71-1.58.57,1.69-4.97,1.66-2.25,1.23-.57-1.69Z"/>
      </g>
    </g>
    <g class="cls-1">
      <g class="cls-1">
        <path class="cls-3" d="m96.75,46.65l.14-.54,6.48,4.32.2,2.05-8.38-5.79-.17-1.65,10.51-1.05.18,1.78-8.97.9Zm2.5,1.97l1.24,1.13-4.62,3.73-.21-2.09,3.58-2.77Z"/>
      </g>
    </g>
    <g class="cls-1">
      <g class="cls-1">
        <path class="cls-3" d="m95.17,58.08c.1-.9.35-1.68.77-2.35.42-.66.95-1.16,1.6-1.5.65-.33,1.38-.46,2.19-.37.8.09,1.48.35,2.05.79.56.44.98,1.01,1.25,1.72.27.71.36,1.49.27,2.35s-.37,1.59-.82,2.18c-.45.59-1.05,1.02-1.79,1.29-.74.27-1.58.36-2.53.26l.77-7.27,1.35.14-.68,6.38-.41-.94c.51.03.96-.05,1.35-.22.39-.18.7-.43.93-.77s.38-.75.43-1.24c.06-.52,0-.98-.17-1.39-.17-.41-.43-.74-.78-1-.35-.26-.79-.42-1.31-.47-.57-.06-1.08.02-1.53.23-.45.21-.81.55-1.08,1-.27.45-.45,1.01-.52,1.66-.06.59-.03,1.21.09,1.84.12.64.33,1.21.61,1.72l-1.28-.14c-.31-.51-.54-1.12-.68-1.82-.14-.7-.17-1.4-.09-2.1Z"/>
      </g>
    </g>
    <g class="cls-1">
      <g class="cls-1">
        <path class="cls-3" d="m94.16,64.06c.05-.2.15-.37.29-.51.14-.14.31-.23.5-.29s.38-.05.59,0c.2.05.37.15.51.29.14.14.23.3.29.5.05.19.05.38,0,.59s-.15.37-.29.51c-.14.14-.3.23-.49.29-.19.05-.39.05-.59,0-.2-.05-.37-.15-.51-.29-.14-.14-.23-.31-.29-.5-.05-.19-.05-.39,0-.59Z"/>
      </g>
    </g>
    <g class="cls-1">
      <g class="cls-1">
        <path class="cls-3" d="m97.49,70.95l-.83,1.58-.4-.21c-.85-.45-1.62-.59-2.3-.45-.68.15-1.26.67-1.72,1.56s-.57,1.66-.32,2.3c.25.64.78,1.18,1.59,1.6l5.25,2.75-.84,1.61-5.31-2.78c-.88-.46-1.52-1.02-1.93-1.67-.41-.66-.6-1.38-.57-2.16.03-.78.26-1.58.69-2.39.42-.81.95-1.45,1.57-1.91.62-.46,1.33-.71,2.11-.74.78-.03,1.61.19,2.51.66l.5.26Z"/>
      </g>
    </g>
    <g class="cls-1">
      <g class="cls-1">
        <path class="cls-3" d="m83.53,83.25l2.41,1.49,3.75,3.25-1.17,1.35-3.96-3.43-2.21-1.31,1.17-1.35Zm2.13-2.75c.47-.54.97-.9,1.52-1.09s1.12-.2,1.7-.04c.59.16,1.17.49,1.74.98l3.25,2.81-1.17,1.35-3.04-2.63c-.61-.53-1.19-.79-1.75-.78s-1.06.27-1.52.8c-.33.38-.53.78-.6,1.2-.07.42-.02.83.16,1.25.18.42.47.8.88,1.16l-.66.24c-.55-.58-.94-1.18-1.15-1.8-.22-.62-.27-1.23-.16-1.83.11-.59.38-1.14.8-1.63Z"/>
      </g>
    </g>
    <g class="cls-1">
      <g class="cls-1">
        <path class="cls-3" d="m80.43,90.94l-.34,1.65-5.57-2.06,1.69-1.25,4.21,1.66Zm.42-3.15l.53-.16-.39,7.78-1.66,1.22.69-10.17,1.34-.99,6.28,8.5-1.43,1.06-5.36-7.25Z"/>
      </g>
    </g>
    <g class="cls-1">
      <g class="cls-1">
        <path class="cls-3" d="m70.24,92.27c.82-.38,1.63-.55,2.41-.53.78.02,1.49.22,2.11.61.62.39,1.1.96,1.44,1.7.33.73.46,1.45.36,2.17-.09.71-.37,1.36-.84,1.95-.47.59-1.1,1.07-1.89,1.43-.79.36-1.56.5-2.29.41-.74-.09-1.41-.38-2.02-.88-.61-.5-1.11-1.18-1.51-2.04l6.65-3.04.56,1.24-5.84,2.67.6-.83c.24.45.53.8.88,1.05.35.24.73.38,1.14.41.41.03.84-.06,1.29-.26.47-.22.84-.5,1.11-.85.27-.35.42-.75.46-1.18.04-.44-.05-.89-.26-1.37-.24-.52-.57-.92-.98-1.2-.41-.27-.88-.41-1.41-.42-.53,0-1.09.13-1.69.4-.54.25-1.05.58-1.54,1.01s-.88.9-1.17,1.4l-.54-1.17c.28-.53.69-1.03,1.22-1.51.53-.47,1.12-.86,1.76-1.15Z"/>
      </g>
    </g>
    <g class="cls-1">
      <g class="cls-1">
        <path class="cls-3" d="m64.54,94.43c.2-.06.4-.06.59-.01.19.05.36.14.5.28.14.13.24.3.3.51.06.2.06.4,0,.59-.05.19-.14.36-.28.5-.13.14-.3.24-.51.3s-.4.06-.59,0c-.19-.05-.36-.14-.5-.28-.14-.14-.24-.3-.3-.51-.06-.2-.06-.4-.01-.59.05-.19.14-.36.28-.5.14-.14.3-.24.51-.3Z"/>
      </g>
    </g>
    <g class="cls-1">
      <g class="cls-1">
        <path class="cls-3" d="m60.34,100.79l-1.78.09-.02-.45c-.05-.96-.31-1.69-.79-2.21s-1.22-.74-2.22-.69c-1,.05-1.72.35-2.14.9-.43.54-.61,1.27-.57,2.19l.31,5.92-1.81.09-.31-5.99c-.05-.99.1-1.82.46-2.51.36-.69.88-1.22,1.57-1.59.69-.37,1.49-.58,2.41-.63.91-.05,1.73.08,2.44.38.72.3,1.29.78,1.71,1.44.42.66.66,1.49.71,2.49l.03.56Z"/>
      </g>
    </g>
    <g class="cls-1">
      <g class="cls-1">
        <path class="cls-3" d="m42.63,95.08l-.05,2.83-.88,4.89-1.76-.31.93-5.16v-2.56l1.76.32Zm3.45.42c.7.13,1.27.38,1.71.75.44.38.74.86.9,1.44.16.59.18,1.25.05,2l-.76,4.23-1.76-.32.71-3.96c.14-.79.07-1.42-.22-1.9-.29-.48-.78-.77-1.46-.9-.5-.09-.94-.06-1.33.09-.39.15-.73.41-1,.78-.27.37-.45.81-.55,1.34l-.55-.45c.21-.77.53-1.41.96-1.91.42-.51.92-.86,1.49-1.07.57-.21,1.17-.26,1.81-.14Z"/>
      </g>
    </g>
    <g class="cls-1">
      <g class="cls-1">
        <path class="cls-3" d="m37.35,95.08l.41.38-6.9,3.62-1.9-.8,9.11-4.57,1.53.65-4.13,9.73-1.64-.7,3.52-8.3Zm-2.93,1.25l-1.59.55-1.05-5.84,1.93.82.71,4.48Z"/>
      </g>
    </g>
    <g class="cls-1">
      <g class="cls-1">
        <path class="cls-3" d="m28.11,88.21c.74.52,1.3,1.12,1.69,1.8.38.68.56,1.39.54,2.13-.02.73-.26,1.43-.73,2.1-.46.66-1.02,1.13-1.68,1.41-.66.28-1.36.37-2.11.27-.75-.1-1.48-.4-2.19-.9-.71-.5-1.22-1.09-1.52-1.77-.3-.68-.39-1.41-.27-2.19.12-.78.45-1.55.99-2.33l6,4.18-.78,1.11-5.27-3.67,1.02.09c-.27.44-.42.87-.46,1.29-.03.42.04.82.23,1.19.18.37.48.69.88.98.43.3.86.47,1.3.52.44.05.86-.02,1.25-.2.4-.19.75-.49,1.04-.92.33-.47.51-.96.54-1.45.03-.49-.09-.97-.36-1.43-.27-.46-.67-.88-1.21-1.25-.49-.34-1.04-.61-1.66-.81s-1.22-.3-1.8-.29l.74-1.06c.6-.03,1.24.07,1.92.28.68.22,1.31.53,1.89.93Z"/>
      </g>
    </g>
    <g class="cls-1">
      <g class="cls-1">
        <path class="cls-3" d="m23.33,84.41c.15.15.26.31.31.5s.06.38.01.57c-.04.19-.14.36-.28.52-.14.15-.31.25-.5.31-.19.05-.38.06-.57.01s-.36-.14-.52-.28c-.15-.14-.26-.31-.31-.5-.05-.19-.06-.38-.01-.57.04-.19.14-.36.28-.52.15-.15.31-.26.5-.31.19-.05.38-.06.57-.02.19.04.36.14.52.28Z"/>
      </g>
    </g>
    <g class="cls-1">
      <g class="cls-1">
        <path class="cls-3" d="m15.71,84.02l-.99-1.48.38-.25c.8-.53,1.3-1.13,1.49-1.8.2-.67.02-1.42-.54-2.26-.56-.84-1.18-1.3-1.86-1.39-.69-.09-1.41.12-2.17.63l-4.93,3.29-1-1.51,4.99-3.33c.82-.55,1.62-.84,2.39-.89.77-.04,1.5.14,2.17.54.67.4,1.26.98,1.77,1.75.51.76.82,1.53.92,2.3s-.01,1.5-.36,2.2-.94,1.33-1.78,1.89l-.47.31Z"/>
      </g>
    </g>
    <g class="cls-1">
      <g class="cls-1">
        <path class="cls-3" d="m11.6,65.88l-2.47,1.4-4.66,1.73-.62-1.67,4.91-1.82,2.21-1.3.62,1.67Zm1.39,3.19c.25.67.32,1.29.22,1.86-.1.57-.36,1.07-.78,1.51-.42.44-.99.79-1.7,1.06l-4.03,1.5-.62-1.67,3.77-1.4c.75-.28,1.26-.67,1.52-1.16.26-.49.27-1.06.03-1.72-.17-.47-.43-.84-.76-1.1-.33-.26-.72-.42-1.17-.46-.45-.05-.93.02-1.44.21l.11-.7c.77-.21,1.48-.26,2.13-.15.65.11,1.21.36,1.68.74s.82.88,1.04,1.49Z"/>
      </g>
    </g>
    <g class="cls-1">
      <g class="cls-1">
        <path class="cls-3" d="m8.93,61.37l-.12.54-6.62-4.1-.27-2.04,8.57,5.51.22,1.64-10.47,1.4-.24-1.77,8.93-1.19Zm-2.56-1.89l-1.28-1.09,4.49-3.88.28,2.08-3.49,2.89Z"/>
      </g>
    </g>
    <g class="cls-1">
      <g class="cls-1">
        <path class="cls-3" d="m10.13,49.9c-.07.9-.3,1.69-.69,2.37-.39.68-.91,1.19-1.55,1.55-.64.36-1.37.51-2.18.45-.8-.06-1.49-.3-2.07-.72-.58-.42-1.02-.98-1.31-1.68-.29-.7-.41-1.48-.34-2.34.06-.87.31-1.6.75-2.21.43-.61,1.01-1.06,1.74-1.35.73-.3,1.57-.41,2.51-.34l-.53,7.29-1.35-.1.47-6.4.44.93c-.51-.01-.96.08-1.34.27-.38.19-.68.46-.9.8-.22.35-.35.77-.39,1.26-.04.52.03.98.22,1.38.18.4.45.73.82.97s.8.39,1.32.43c.58.04,1.08-.05,1.52-.28.44-.23.79-.58,1.04-1.04.26-.46.41-1.02.46-1.68.04-.59,0-1.21-.15-1.84-.14-.63-.36-1.2-.67-1.7l1.29.09c.33.5.58,1.1.74,1.79.16.69.21,1.39.16,2.1Z"/>
      </g>
    </g>
    <g class="cls-1">
      <g class="cls-1">
        <path class="cls-3" d="m10.95,43.85c-.05.21-.14.38-.27.52-.13.14-.3.24-.48.3-.19.06-.38.07-.59.02-.2-.05-.38-.14-.52-.27-.14-.14-.24-.3-.3-.48-.06-.19-.07-.38-.02-.59.05-.2.14-.38.27-.52s.3-.24.48-.3c.19-.06.38-.07.59-.02.21.05.38.14.52.27.14.14.24.3.3.48.06.19.07.38.02.59Z"/>
      </g>
    </g>
    <g class="cls-1">
      <g class="cls-1">
        <path class="cls-3" d="m7.38,37.12l.77-1.61.41.2c.87.42,1.64.54,2.31.37.68-.17,1.23-.71,1.67-1.62.44-.91.52-1.68.24-2.31-.27-.63-.82-1.15-1.64-1.55l-5.34-2.57.79-1.63,5.4,2.6c.89.43,1.55.97,1.98,1.61.43.64.64,1.36.64,2.14,0,.78-.21,1.58-.61,2.42-.4.82-.9,1.48-1.51,1.96s-1.3.75-2.08.81c-.78.06-1.62-.13-2.53-.57l-.51-.24Z"/>
      </g>
    </g>
    <g class="cls-1">
      <g class="cls-1">
        <path class="cls-3" d="m18.89,27.16c-.45.55-.94.93-1.49,1.14-.54.2-1.11.24-1.7.1-.59-.14-1.19-.45-1.77-.93l-3.34-2.7,1.12-1.39,3.12,2.53c.63.51,1.22.75,1.77.72s1.05-.31,1.49-.85c.32-.39.5-.8.56-1.22.06-.42,0-.83-.2-1.25-.19-.41-.49-.79-.91-1.13l.66-.26c.57.56.98,1.15,1.21,1.76.24.62.31,1.22.22,1.82s-.34,1.15-.75,1.65Zm2.04-2.82l-2.46-1.41-3.86-3.13,1.12-1.39,4.07,3.3,2.25,1.24-1.12,1.39Z"/>
      </g>
    </g>
    <g class="cls-1">
      <g class="cls-1">
        <path class="cls-3" d="m23.46,19.73l-.53.17.14-7.79,1.61-1.28-.36,10.18-1.3,1.03-6.55-8.29,1.4-1.11,5.59,7.07Zm.31-3.17l.28-1.66,5.63,1.88-1.65,1.3-4.27-1.52Z"/>
      </g>
    </g>
    <g class="cls-1">
      <g class="cls-1">
        <path class="cls-3" d="m33.94,14.89c-.81.4-1.61.61-2.39.61-.78,0-1.49-.18-2.12-.54-.63-.37-1.13-.92-1.49-1.65-.36-.72-.5-1.44-.43-2.15.07-.71.33-1.37.78-1.98.45-.61,1.06-1.1,1.84-1.49s1.54-.55,2.28-.48c.74.06,1.43.34,2.05.81.62.48,1.15,1.14,1.57,1.99l-6.55,3.25-.6-1.22,5.75-2.86-.57.85c-.25-.45-.56-.79-.91-1.02-.36-.23-.74-.35-1.15-.37-.41-.02-.84.09-1.28.31-.47.23-.83.53-1.08.89s-.4.76-.42,1.2c-.03.44.07.89.31,1.36.26.52.59.9,1.01,1.17.42.26.9.39,1.42.37.53-.01,1.09-.17,1.68-.46.53-.26,1.04-.62,1.51-1.06.47-.44.85-.92,1.12-1.44l.57,1.16c-.26.54-.65,1.06-1.17,1.55-.52.49-1.09.89-1.72,1.21Z"/>
      </g>
    </g>
    <g class="cls-1">
      <g class="cls-1">
        <path class="cls-3" d="m39.57,12.53c-.2.06-.4.07-.59.03-.19-.04-.36-.13-.51-.26-.15-.13-.25-.3-.32-.5s-.07-.4-.03-.59c.04-.19.13-.36.26-.51.13-.15.3-.25.5-.32.2-.06.4-.07.59-.03.19.04.36.13.51.26.15.13.25.3.32.5s.07.4.03.59c-.04.19-.13.36-.26.51-.13.15-.3.25-.5.32Z"/>
      </g>
    </g>
  </g>
</svg>