<?xml version="1.0" encoding="UTF-8"?>
<svg id="Layer_1" data-name="Layer 1" xmlns="http://www.w3.org/2000/svg" viewBox="0 0 283.46 283.46">
  <defs>
    <style>
      .cls-1 {
        fill: #FAFAFC;
        stroke-width: 0px;
      }
    </style>
  </defs>
  <path class="cls-1" d="m53.89,54.04c4.64-4.64,12.16-4.64,16.81,0l70.88,70.88,70.88-70.88c4.48-4.81,12-5.07,16.81-.59,4.81,4.48,5.07,12,.59,16.81-.19.2-.39.4-.59.59l-70.88,70.88,70.88,70.88c4.81,4.48,5.07,12,.59,16.81-4.48,4.81-12,5.07-16.81.59-.2-.19-.4-.39-.59-.59l-70.88-70.88-70.88,70.88c-4.81,4.48-12.33,4.21-16.81-.59-4.26-4.57-4.26-11.65,0-16.21l70.88-70.88L53.89,70.85c-4.64-4.64-4.64-12.16,0-16.81Z"/>
</svg>