<?xml version="1.0" encoding="UTF-8"?>
<svg id="Layer_1" data-name="Layer 1" xmlns="http://www.w3.org/2000/svg" viewBox="0 0 16 16">
  <defs>
    <style>
      .cls-1 {
        fill: #ededed;
        stroke-width: 0px;
      }
    </style>
  </defs>
  <path class="cls-1" d="M2.47,2.47c.29-.29.77-.29,1.06,0l4.47,4.47,4.47-4.47c.28-.3.76-.32,1.06-.04s.32.76.04,1.06c-.01.01-.02.03-.04.04l-4.47,4.47,4.47,4.47c.3.28.32.76.04,1.06s-.76.32-1.06.04c-.01-.01-.03-.02-.04-.04l-4.47-4.47-4.47,4.47c-.3.28-.78.27-1.06-.04-.27-.29-.27-.73,0-1.02l4.47-4.47L2.47,3.53c-.29-.29-.29-.77,0-1.06Z"/>
</svg>