<?xml version="1.0" encoding="UTF-8"?>
<svg id="Layer_1" data-name="Layer 1" xmlns="http://www.w3.org/2000/svg" viewBox="0 0 283.46 127.77">
  <defs>
    <style>
      .cls-1 {
        fill: #292929;
        stroke-width: 0px;
      }
    </style>
  </defs>
  <path class="cls-1" d="M42.63,65.36h10.48v1.82c0,4.06.89,7.19,2.67,9.38,1.78,2.2,4.72,3.29,8.82,3.29s7-1.05,8.82-3.17c1.82-2.11,2.73-5.03,2.73-8.75v-26.8h10.67v27.3c0,4.43-.93,8.2-2.79,11.29-1.86,3.1-4.47,5.44-7.81,7.03-3.35,1.59-7.22,2.39-11.61,2.39s-8.18-.82-11.49-2.45-5.87-4.03-7.69-7.19c-1.82-3.16-2.73-7.02-2.73-11.58l-.06-2.57Z"/>
  <path class="cls-1" d="M109.66,89.15c-3.31,0-6.12-.68-8.44-2.04-2.32-1.36-4.1-3.29-5.34-5.8-1.23-2.51-1.85-5.48-1.85-8.91v-19.9h10.48v18.32c0,3.18.75,5.6,2.26,7.25,1.51,1.65,3.64,2.48,6.4,2.48,2.05,0,3.79-.43,5.24-1.29,1.44-.86,2.56-2.1,3.36-3.73s1.2-3.54,1.2-5.71l3.39,1.82c-.42,3.68-1.4,6.83-2.95,9.45-1.55,2.61-3.51,4.61-5.87,5.99-2.36,1.38-4.99,2.07-7.88,2.07ZM125.16,88.2l-2.2-13.55v-22.16h10.48v23.72l2.2,11.99h-10.48Z"/>
  <path class="cls-1" d="M152.33,79.54l-2.95-1.07,21.21-25.98h11.42l-30.62,35.71h-9.54v-48.33h10.48v39.67ZM160.42,70.69l7.72-5.96,14.87,23.47h-11.99l-10.61-17.51Z"/>
  <path class="cls-1" d="M204.8,89.15c-4.23,0-8-.79-11.33-2.35-3.33-1.57-5.94-3.77-7.84-6.62-1.91-2.84-2.85-6.15-2.85-9.92s.91-6.99,2.73-9.79c1.82-2.8,4.32-4.99,7.5-6.56,3.18-1.57,6.8-2.35,10.86-2.35s7.7.91,10.67,2.73c2.97,1.82,5.26,4.38,6.87,7.69,1.61,3.31,2.42,7.2,2.42,11.67h-32.64v-6.97h26.99l-4.08,2.51c-.17-2.09-.68-3.87-1.54-5.33-.86-1.47-2.02-2.59-3.48-3.39-1.47-.79-3.18-1.19-5.14-1.19-2.13,0-3.99.43-5.56,1.29-1.57.86-2.78,2.05-3.64,3.58s-1.29,3.32-1.29,5.37c0,2.47.55,4.58,1.63,6.34,1.09,1.76,2.68,3.1,4.77,4.01,2.09.92,4.62,1.38,7.59,1.38,2.68,0,5.37-.39,8.1-1.16,2.72-.77,5.16-1.87,7.34-3.29v7.03c-2.34,1.67-5.08,2.98-8.19,3.92-3.12.94-6.41,1.41-9.88,1.41Z"/>
  <path class="cls-1" d="M234.74,88.77c-1.13,0-2.17-.27-3.11-.81-.94-.54-1.69-1.29-2.23-2.23-.55-.94-.82-1.98-.82-3.11s.27-2.23.82-3.17c.54-.94,1.28-1.69,2.23-2.23.94-.54,1.98-.81,3.11-.81s2.23.27,3.17.81c.94.54,1.68,1.29,2.23,2.23.54.94.82,2,.82,3.17s-.28,2.17-.82,3.11c-.55.94-1.29,1.69-2.23,2.23-.94.54-2,.81-3.17.81Z"/>
</svg>