<?xml version="1.0" encoding="UTF-8"?>
<svg id="Layer_1" data-name="Layer 1" xmlns="http://www.w3.org/2000/svg" viewBox="0 0 283.46 283.46">
 
  <path class="cls-1" d="m233.02,67.08c-22.86-21.05-58.94-22.47-83.73-3.56,0,0-3.27,2.42-7.42,2.42s-7.27-2.42-7.42-2.42c-24.79-18.92-60.87-17.49-83.73,3.56-11.73,10.81-18.26,25.17-18.26,40.39s6.53,29.58,17.96,40.11l72.15,77.51c4.75,5.12,11.73,8.11,19.15,8.11s14.4-2.99,19.15-8.11l72-77.37c24.2-22.33,24.2-58.46,0-80.79l.15.14Zm-6.09,75.52l-72.15,77.51c-3.27,3.41-7.87,5.4-12.77,5.4s-9.65-1.99-12.77-5.4l-72.45-77.8c-10.1-9.39-15.74-21.76-15.74-34.85s5.64-25.6,15.74-34.85c10.54-9.67,24.35-14.51,38.01-14.51,12.03,0,24.2,3.84,34.29,11.38.59.43,5.49,4.41,12.92,4.41s12.32-3.84,12.77-4.27c21.53-16.36,52.56-15.08,72.45,3.13,20.93,19.2,20.93,50.63-.15,70.12l-.15-.28Z" fill="#FAFAFC"/>
</svg>