<svg width="96" height="96" viewBox="0 0 96 96" fill="none" xmlns="http://www.w3.org/2000/svg">
<path d="M24.15 15C23.3146 15 22.5134 15.3477 21.9226 15.9665C21.3319 16.5854 21 17.4248 21 18.3V77.7C21 78.5752 21.3319 79.4146 21.9226 80.0335C22.5134 80.6523 23.3146 81 24.15 81H35.85C36.6854 81 37.4866 80.6523 38.0774 80.0335C38.6681 79.4146 39 78.5752 39 77.7V18.3C39 17.4248 38.6681 16.5854 38.0774 15.9665C37.4866 15.3477 36.6854 15 35.85 15H24.15ZM60.15 15C59.3146 15 58.5134 15.3477 57.9226 15.9665C57.3319 16.5854 57 17.4248 57 18.3V77.7C57 78.5752 57.3319 79.4146 57.9226 80.0335C58.5134 80.6523 59.3146 81 60.15 81H71.85C72.6854 81 73.4866 80.6523 74.0774 80.0335C74.6681 79.4146 75 78.5752 75 77.7V18.3C75 17.4248 74.6681 16.5854 74.0774 15.9665C73.4866 15.3477 72.6854 15 71.85 15H60.15Z" fill="white"/>
</svg>
