<svg width="96" height="96" viewBox="0 0 96 96" fill="none" xmlns="http://www.w3.org/2000/svg">
<path d="M30.2 14.3751L84.16 45.5271C84.5852 45.773 84.9383 46.1264 85.1838 46.5519C85.4293 46.9774 85.5585 47.4599 85.5585 47.9511C85.5585 48.4423 85.4293 48.9249 85.1838 49.3504C84.9383 49.7759 84.5852 50.1293 84.16 50.3751L30.2 81.5271C29.7744 81.7728 29.2916 81.9022 28.8002 81.9023C28.3088 81.9023 27.826 81.773 27.4004 81.5273C26.9747 81.2817 26.6213 80.9284 26.3755 80.5028C26.1296 80.0773 26.0002 79.5946 26 79.1031V16.7991C26.0002 16.3077 26.1296 15.825 26.3755 15.3994C26.6213 14.9739 26.9747 14.6206 27.4004 14.3749C27.826 14.1293 28.3088 14 28.8002 14C29.2916 14 29.7744 14.1294 30.2 14.3751Z" fill="white"/>
</svg>