<?xml version="1.0" encoding="UTF-8"?>
<svg id="Layer_1" data-name="Layer 1" xmlns="http://www.w3.org/2000/svg" viewBox="0 0 16 16">
  <defs>
    <style>
      .cls-1 {
        fill: #FAFAFC;
        stroke: rgba(0, 0, 0, 0);
        stroke-miterlimit: 6;
        stroke-width: 1.5px;
      }
    </style>
  </defs>
  <path class="cls-1" d="M12.33,7.17c-2.36-1.4-6.25-1.53-8.5-.85-.36.11-.74-.09-.85-.46-.11-.36.09-.74.46-.85,2.58-.78,6.88-.63,9.59.98.33.19.43.61.24.94-.19.33-.61.43-.94.24ZM11.46,9.43c-1.97-1.21-4.96-1.56-7.29-.85-.3.09-.62-.08-.71-.38-.09-.3.08-.62.38-.71,2.66-.81,5.96-.42,8.22.97.27.17.35.52.19.78-.17.27-.52.35-.78.19ZM10.73,11.39c-1.72-1.05-3.88-1.29-6.43-.71-.25.06-.49-.1-.55-.34-.06-.25.1-.49.34-.55,2.79-.64,5.18-.36,7.1.82.21.13.28.41.15.63-.13.22-.41.28-.63.15ZM.69,8c0,4.04,3.27,7.31,7.31,7.31s7.31-3.27,7.31-7.31S12.04.69,8,.69.69,3.96.69,8Z"/>
</svg>