<?xml version="1.0" encoding="UTF-8"?>
<svg id="Layer_1" data-name="Layer 1" xmlns="http://www.w3.org/2000/svg" viewBox="0 0 283.46 283.46">
  <defs>
    <style>
      .cls-1 {
        fill: #EB8802;
        stroke-width: 0px;
      }
    </style>
  </defs>
  <path class="cls-1" d="m146.64,60.19c-3.04-1.75-6.78-1.75-9.81,0l-73.6,42.49v121.91h44.16v-58.88c0-5.42,4.39-9.81,9.81-9.81h49.07c5.42,0,9.81,4.39,9.81,9.81v58.88h44.16v-121.91s-73.6-42.49-73.6-42.49Zm-19.63-17c9.11-5.26,20.33-5.26,29.44,0l73.6,42.49c6.07,3.51,9.81,9.99,9.81,17v131.73c0,5.42-4.39,9.81-9.81,9.81h-63.79c-5.42,0-9.81-4.39-9.81-9.81v-58.88h-29.44v58.88c0,5.42-4.39,9.81-9.81,9.81h-63.79c-5.42,0-9.81-4.39-9.81-9.81V102.68c0-7.01,3.74-13.49,9.81-17,0,0,73.6-42.49,73.6-42.49Z"/>
</svg>