<?xml version="1.0" encoding="UTF-8"?>
<svg id="Layer_1" data-name="Layer 1" xmlns="http://www.w3.org/2000/svg" viewBox="0 0 283.46 283.46">
  <defs>
    <style>
      .cls-1 {
        fill: #EB8802;
        stroke-width: 0px;
      }
    </style>
  </defs>
  <path class="cls-1" d="m130.03,45.1c-47.35,0-85.98,37.84-85.98,84.81s38.63,84.81,85.98,84.81c20.42,0,39.21-7.04,53.99-18.81l39.78,39.78c3.57,3.57,9.36,3.57,12.93,0,3.57-3.57,3.57-9.36,0-12.93l-39.7-39.7c11.87-14.53,18.98-33,18.98-53.16,0-46.97-38.63-84.81-85.98-84.81Zm-67.7,84.81c0-36.61,30.18-66.53,67.7-66.53s67.7,29.92,67.7,66.53-30.18,66.53-67.7,66.53-67.7-29.92-67.7-66.53Z"/>
</svg>